<?xml version="1.0" encoding="UTF-8"?>
<!DOCTYPE svg PUBLIC "-//W3C//DTD SVG 1.1//EN" "http://www.w3.org/Graphics/SVG/1.1/DTD/svg11.dtd">
<!-- Creator: CorelDRAW X7 -->
<svg xmlns="http://www.w3.org/2000/svg" xml:space="preserve" width="1501px" height="1501px" version="1.1" style="shape-rendering:geometricPrecision; text-rendering:geometricPrecision; image-rendering:optimizeQuality; fill-rule:evenodd; clip-rule:evenodd"
viewBox="0 0 2178 2178"
 xmlns:xlink="http://www.w3.org/1999/xlink">
 <defs>
  <style type="text/css">
   <![CDATA[
    .fil0 {fill:#E6DFDF}
   ]]>
  </style>
 </defs>
 <g id="Capa_x0020_1">
  <metadata id="CorelCorpID_0Corel-Layer"/>
  <g id="_427862344">
   <path class="fil0" d="M219 1348c5,4 107,131 207,205 53,40 195,132 264,148 0,50 -13,114 36,114l726 0c49,0 36,-64 36,-114 112,-26 316,-179 398,-268 11,-12 13,-18 25,-30 16,-15 35,-46 49,-55 0,134 0,269 0,403 0,89 11,120 -37,167 -113,111 -471,174 -639,178 -22,0 -22,4 -45,5l-295 0 -231 -24c-29,-3 -55,-9 -85,-14 -104,-18 -297,-73 -370,-143 -50,-48 -39,-74 -39,-164 0,-136 0,-272 0,-408zm544 322l653 0 0 72 -653 0 0 -72zm-544 -1211c11,8 17,14 30,24 14,9 23,13 37,21 21,12 54,31 78,37 0,178 0,356 0,535 0,132 -18,227 98,305 62,43 153,46 219,12 170,-87 101,-260 119,-417 13,-128 176,-136 209,-29 18,57 -20,193 82,272 61,47 89,52 161,52 39,0 83,-21 107,-39 31,-22 53,-45 70,-79 54,-104 -22,-236 98,-274 29,-9 39,-4 68,-9 44,-8 71,-28 96,-54 65,-65 51,-126 51,-248 22,-5 36,-13 58,-20 96,-34 103,-55 160,-85l0 713c0,53 -38,96 -69,134l-95 109 -113 92c-42,30 -153,105 -199,109 -4,-16 -13,-23 -32,-23l-726 0c-19,0 -27,7 -31,23 -59,-5 -209,-114 -256,-153 -12,-10 -15,-11 -27,-23 -11,-11 -15,-13 -27,-23 -21,-18 -30,-35 -50,-54 -25,-25 -69,-84 -89,-115 -40,-58 -27,-71 -27,-176l0 -617zm1813 598l0 -512 73 0c0,161 -1,350 -66,501l-5 9c0,0 -1,2 -2,2zm-1959 -403l0 -109 73 0 0 512c-19,-27 -49,-155 -54,-181 -12,-70 -19,-141 -19,-222zm848 145c-75,0 -126,21 -167,82 -66,102 8,304 -51,393 -77,118 -241,67 -262,-45 -11,-62 -5,-573 -5,-661 119,27 120,38 275,61 251,37 589,37 838,-14 22,-5 40,-7 61,-12 16,-4 41,-11 60,-13 0,81 7,142 -38,181 -20,17 -45,27 -80,28 -38,1 -59,9 -85,24 -40,25 -81,75 -87,131 -9,86 13,133 -34,188 -57,68 -152,77 -219,5 -20,-21 -29,-41 -35,-78 -14,-89 15,-118 -31,-188 -25,-38 -78,-82 -140,-82zm168 -726c162,0 355,18 511,52 74,16 152,39 213,68 49,22 147,72 146,134 -1,110 -273,182 -360,202 -72,16 -287,48 -374,48 -51,0 -89,5 -136,4 -236,0 -508,-30 -723,-119 -49,-21 -146,-76 -147,-135 -1,-110 273,-182 360,-201 77,-17 161,-32 243,-39 83,-6 185,-14 267,-14zm-943 241l0 159c-77,0 -145,-15 -145,36 0,192 -11,296 42,484 18,68 57,166 91,221 17,26 12,27 12,66l0 544c0,65 4,82 34,120 21,27 52,54 82,72 71,42 135,65 223,91 370,107 1098,106 1428,-90 32,-18 62,-43 84,-70 31,-38 36,-56 35,-123l0 -540c0,-39 -5,-43 12,-70 34,-54 72,-149 91,-217 53,-188 43,-296 43,-488 0,-51 -68,-36 -146,-36 0,-168 27,-228 -136,-322 -59,-34 -142,-64 -216,-83 -353,-91 -829,-91 -1181,0 -108,28 -353,114 -353,246z"/>
   <path class="fil0" d="M441 327c13,-19 31,-24 56,-34 61,-23 169,-44 234,-51 104,-12 157,-16 263,-19 33,-1 32,-4 91,-4 170,0 426,17 586,70 38,13 56,27 67,29 -2,19 -4,18 -20,26 -76,39 -180,58 -267,69 -97,12 -168,17 -267,19 -23,0 -25,3 -45,4 -43,3 -98,-2 -136,-4 -31,-2 -63,3 -94,-2l-173 -16c-78,-9 -265,-42 -295,-87zm-77 -9l0 18c0,85 207,127 274,139 285,52 793,52 1065,-42 39,-13 112,-51 112,-97l0 -18c0,-84 -208,-126 -274,-138 -286,-52 -793,-53 -1066,41 -38,14 -111,52 -111,97z"/>
  </g>
 </g>
</svg>
