<?xml version="1.0" encoding="UTF-8"?>
<!DOCTYPE svg PUBLIC "-//W3C//DTD SVG 1.1//EN" "http://www.w3.org/Graphics/SVG/1.1/DTD/svg11.dtd">
<!-- Creator: CorelDRAW X7 -->
<svg xmlns="http://www.w3.org/2000/svg" xml:space="preserve" width="2550px" height="2336px" version="1.1" style="shape-rendering:geometricPrecision; text-rendering:geometricPrecision; image-rendering:optimizeQuality; fill-rule:evenodd; clip-rule:evenodd"
viewBox="0 0 2550 2336"
 xmlns:xlink="http://www.w3.org/1999/xlink">
 <defs>
  <style type="text/css">
   <![CDATA[
    .fil0 {fill:#E6DFDF}
   ]]>
  </style>
 </defs>
 <g id="Capa_x0020_1">
  <metadata id="CorelCorpID_0Corel-Layer"/>
  <g id="_253672904">
   <g>
    <path class="fil0" d="M2523 1477c-49,-72 -146,-91 -218,-43l-325 218 -1 -678 113 106c24,23 55,35 88,35 0,0 0,0 0,0 36,0 70,-15 94,-41 24,-25 36,-58 35,-92 -1,-35 -15,-67 -40,-90l-215 -201c-14,-14 -38,-13 -51,2 -14,14 -13,37 1,51l215 201c11,10 17,24 18,39 0,15 -5,30 -16,41 -10,11 -25,17 -41,17 0,0 0,0 0,0 -14,0 -28,-5 -38,-15 0,0 0,0 0,0l-851 -797c-14,-13 -36,-13 -50,0l-849 800c-11,10 -25,15 -40,15 -16,-1 -30,-7 -40,-18 -10,-11 -16,-25 -15,-40 0,-15 7,-29 18,-40l912 -859c21,-20 55,-20 77,0l534 500c14,14 37,13 51,-2 14,-14 13,-37 -1,-51l-534 -500c-50,-47 -128,-47 -177,0l-292 275 0 -49c0,-15 -6,-30 -17,-41 -11,-11 -26,-17 -41,-17 0,0 0,0 0,0l-209 1c-16,0 -30,6 -41,17 -11,11 -17,25 -17,41l1 354 -296 279c-26,23 -40,55 -41,90 -1,34 11,67 35,92 24,25 56,40 90,41 2,0 3,0 4,0 33,0 65,-13 89,-35l113 -107 0 321c-36,-6 -73,-9 -110,-9l-63 0 0 -21c0,-74 -59,-133 -133,-133l-116 0c-73,0 -133,59 -133,133l0 570c0,20 16,36 36,36 20,0 37,-16 37,-36l0 -570c0,-34 27,-60 60,-60l116 0c33,0 60,26 60,60l0 58 0 746 0 58c0,33 -27,60 -60,60l-116 0c-33,0 -60,-27 -60,-60l0 -64c0,-20 -17,-37 -37,-37 -20,0 -36,17 -36,37l0 64c0,73 60,132 133,132l116 0c74,0 133,-59 133,-132l0 -5 533 201c1,1 2,1 3,1 23,7 47,10 69,10 13,0 25,-1 37,-3l784 -113c0,0 0,0 0,0 67,-10 130,-38 182,-81 0,0 1,-1 1,-1l506 -455c59,-53 70,-141 26,-206zm-1711 -1201l0 103 -179 168 0 -271 179 0zm454 30l640 600 1 795 -103 69 -109 -6 -3 -29c-10,-102 -86,-184 -185,-204l-1 -473c0,-36 -29,-66 -66,-66 0,0 0,0 0,0l-347 1c-17,0 -34,7 -46,19 -13,13 -20,29 -20,47l1 412c-69,-16 -134,-42 -196,-77 -7,-5 -15,-9 -23,-13 -3,-2 -6,-4 -9,-5 -5,-3 -9,-5 -14,-8 -4,-1 -8,-3 -12,-5 -4,-2 -8,-4 -12,-6 -4,-2 -8,-4 -13,-5 -3,-2 -7,-4 -11,-5 -5,-2 -9,-4 -13,-6 -4,-1 -8,-3 -12,-4 -4,-2 -9,-3 -13,-5 -4,-1 -8,-3 -12,-4 -4,-1 -9,-3 -13,-4 -4,-1 -9,-3 -13,-4 -4,-1 -8,-2 -12,-3 -5,-2 -10,-3 -15,-4 -2,-1 -5,-2 -7,-2l-1 -403 639 -602zm168 1216l-304 -35 -29 -3 -1 -418 333 -1 1 457zm1015 106l-506 455c-42,34 -92,57 -146,65l-783 113c0,0 0,0 -1,0l0 0c-24,4 -48,3 -73,-4l-558 -211 0 -685 63 0c53,0 105,6 156,18 2,1 4,1 6,2 6,1 13,3 19,4 1,0 1,1 2,1 6,2 12,3 18,5 2,1 3,1 4,1 6,2 13,4 20,7 0,0 1,0 2,0 13,5 27,10 40,16 1,0 2,0 2,1 7,3 14,5 20,8 0,0 0,1 1,1 6,3 12,6 19,9 0,0 1,0 2,1 6,3 12,6 18,9 1,1 2,2 3,2 7,3 13,7 19,10 86,51 181,84 280,98 0,0 1,0 1,0l408 47c2,0 4,1 6,1 60,11 108,56 124,114 2,8 4,17 5,26l1 16 -764 -67c-20,-1 -38,13 -40,33 -1,20 13,38 33,40l809 71c0,0 0,0 0,0 0,0 0,0 1,0l152 8c1,0 1,0 2,0 1,0 2,0 2,0 1,0 2,0 3,0 1,0 2,0 3,-1 1,0 1,0 2,0 1,0 2,-1 4,-1 0,-1 1,-1 1,-1 2,-1 4,-2 5,-3l130 -86c0,0 0,0 0,0l382 -256c38,-26 91,-16 117,23 23,35 18,82 -14,110z"/>
   </g>
  </g>
  <g id="_253672928">
  </g>
  <g id="_253672712">
  </g>
  <g id="_253673192">
  </g>
  <g id="_253673720">
  </g>
  <g id="_253673408">
  </g>
  <g id="_253674032">
  </g>
  <g id="_253673600">
  </g>
  <g id="_253674056">
  </g>
  <g id="_253673960">
  </g>
  <g id="_253674656">
  </g>
  <g id="_253674104">
  </g>
  <g id="_253674680">
  </g>
  <g id="_253674248">
  </g>
  <g id="_253674608">
  </g>
  <g id="_253674872">
  </g>
 </g>
</svg>
