<?xml version="1.0" encoding="UTF-8"?>
<!DOCTYPE svg PUBLIC "-//W3C//DTD SVG 1.1//EN" "http://www.w3.org/Graphics/SVG/1.1/DTD/svg11.dtd">
<!-- Creator: CorelDRAW X7 -->
<svg xmlns="http://www.w3.org/2000/svg" xml:space="preserve" width="2000px" height="2000px" version="1.1" style="shape-rendering:geometricPrecision; text-rendering:geometricPrecision; image-rendering:optimizeQuality; fill-rule:evenodd; clip-rule:evenodd"
viewBox="0 0 2000 2000"
 xmlns:xlink="http://www.w3.org/1999/xlink">
 <defs>
  <style type="text/css">
   <![CDATA[
    .fil0 {fill:#E6DFDF}
   ]]>
  </style>
 </defs>
 <g id="Capa_x0020_1">
  <metadata id="CorelCorpID_0Corel-Layer"/>
  <g id="_244472560">
   <path class="fil0" d="M1996 474c-7,-26 -23,-47 -46,-61 -23,-13 -51,-17 -76,-10 -26,7 -48,24 -61,47l-17 29c-15,-9 -36,-4 -45,12l-85 144 -29 -16c-7,-5 -16,-6 -25,-4 -9,3 -16,8 -20,16 -9,16 -4,36 12,45l29 17 -283 491 -70 187 -34 62c-19,34 -17,76 6,108l-75 92 -21 -53c-10,-23 -32,-39 -57,-41 -25,-2 -49,10 -62,32l-12 20 -12 -133c-2,-31 -27,-57 -58,-61 -31,-3 -61,15 -71,45l-82 246c-6,18 4,37 21,42 3,2 7,3 10,3 15,0 27,-9 32,-23l82 -246 11 136c3,29 23,53 52,59 28,7 57,-6 72,-31l12 -20 21 52c9,22 28,38 52,42 23,3 47,-6 62,-25l77 -98c9,2 18,3 27,3 35,1 69,-18 87,-49l33 -56 127 -154 286 -497 29 17c8,4 14,12 16,20 2,9 1,18 -3,26l-134 230c-5,8 -6,17 -4,26 2,9 7,17 15,21 8,5 17,6 25,4 9,-3 16,-8 21,-16l133 -231c13,-23 17,-50 10,-76 -7,-25 -24,-47 -47,-60l-29 -17 84 -144c9,-16 3,-36 -12,-46l16 -29c14,-23 18,-51 10,-77l0 0zm-125 9c4,-7 11,-13 20,-15 9,-3 18,-1 25,3 8,4 14,12 16,20 2,9 1,18 -3,26l-17 29 -58 -34 17 -29zm-455 931l-16 -10 -50 -29 48 -126 105 60 -87 105zm-100 96c-14,-10 -18,-29 -10,-44l17 -29 58 34 -17 28c-4,9 -12,14 -21,16 -9,2 -19,0 -27,-5l0 0zm225 -255l-116 -67 267 -462 115 67 -266 462zm300 -520l-116 -66 67 -116 115 67 -66 115zm0 0z"/>
   <path class="fil0" d="M526 1493l-118 118 -71 -71c-13,-13 -34,-13 -47,0 -6,7 -10,15 -10,24 0,9 4,17 10,24l71 70c12,13 29,20 47,20 18,0 35,-7 47,-20l118 -118c11,-13 10,-33 -2,-45 -12,-12 -32,-13 -45,-2l0 0zm0 0z"/>
   <path class="fil0" d="M133 1583c0,157 127,283 284,283 156,0 283,-126 283,-283 0,-18 -15,-33 -33,-33 -19,0 -34,15 -34,33 0,120 -97,217 -216,217 -120,0 -217,-97 -217,-217 0,-120 97,-217 217,-217 46,0 92,16 130,44 14,11 35,8 46,-7 11,-15 8,-36 -6,-47 -86,-64 -201,-74 -297,-26 -96,48 -157,146 -157,253l0 0zm0 0z"/>
   <path class="fil0" d="M1200 267c18,0 33,-15 33,-34 0,-18 -15,-33 -33,-33l-867 0c-18,0 -33,15 -33,33l0 134c0,18 15,33 33,33l867 0c18,0 33,-15 33,-33 0,-19 -15,-34 -33,-34l-833 0 0 -66 833 0zm0 0z"/>
   <path class="fil0" d="M433 467c-18,0 -33,15 -33,33 0,18 15,33 33,33l667 0c18,0 33,-15 33,-33 0,-18 -15,-33 -33,-33l-667 0zm0 0z"/>
   <path class="fil0" d="M1300 700l-733 0c-19,0 -34,15 -34,33 0,19 15,34 34,34l733 0c18,0 33,-15 33,-34 0,-18 -15,-33 -33,-33l0 0zm0 0z"/>
   <path class="fil0" d="M967 933c0,-18 -15,-33 -34,-33l-666 0c-19,0 -34,15 -34,33 0,19 15,34 34,34l666 0c19,0 34,-15 34,-34zm0 0z"/>
   <path class="fil0" d="M1300 900l-234 0c-18,0 -33,15 -33,33 0,19 15,34 33,34l234 0c18,0 33,-15 33,-34 0,-18 -15,-33 -33,-33zm0 0z"/>
   <path class="fil0" d="M600 1133c18,0 33,-15 33,-33 0,-19 -15,-34 -33,-34l-333 0c-19,0 -34,15 -34,34 0,18 15,33 34,33l333 0zm0 0z"/>
   <path class="fil0" d="M733 1133l234 0c18,0 33,-15 33,-33 0,-19 -15,-34 -33,-34l-234 0c-18,0 -33,15 -33,34 0,18 15,33 33,33zm0 0z"/>
   <path class="fil0" d="M1500 1533c-19,0 -34,15 -34,33l0 334c0,18 -15,33 -33,33l-1333 0c-18,0 -33,-15 -33,-33l0 -1800c0,-18 15,-33 33,-33l1333 0c18,0 33,15 33,33l0 626c0,18 15,33 34,33 18,0 33,-15 33,-33l0 -626c0,-55 -45,-100 -100,-100l-1333 0c-55,0 -100,45 -100,100l0 1800c0,55 45,100 100,100l1333 0c55,0 100,-45 100,-100l0 -334c0,-18 -15,-33 -33,-33l0 0zm0 0z"/>
  </g>
 </g>
</svg>
