<?xml version="1.0" encoding="UTF-8"?>
<!DOCTYPE svg PUBLIC "-//W3C//DTD SVG 1.1//EN" "http://www.w3.org/Graphics/SVG/1.1/DTD/svg11.dtd">
<!-- Creator: CorelDRAW X7 -->
<svg xmlns="http://www.w3.org/2000/svg" xml:space="preserve" width="2550px" height="2067px" version="1.1" style="shape-rendering:geometricPrecision; text-rendering:geometricPrecision; image-rendering:optimizeQuality; fill-rule:evenodd; clip-rule:evenodd"
viewBox="0 0 2550 2067"
 xmlns:xlink="http://www.w3.org/1999/xlink">
 <defs>
  <style type="text/css">
   <![CDATA[
    .fil0 {fill:#D1D1D1}
   ]]>
  </style>
 </defs>
 <g id="Capa_x0020_1">
  <metadata id="CorelCorpID_0Corel-Layer"/>
  <g id="_295995616">
   <g>
    <path class="fil0" d="M2001 442l-1452 0c-21,0 -37,16 -37,37 0,21 16,38 37,38l1452 0c21,0 37,-17 37,-38 0,-21 -16,-37 -37,-37z"/>
   </g>
  </g>
  <g id="_295995832">
   <g>
    <path class="fil0" d="M2001 849l-1452 0c-21,0 -37,17 -37,37 0,21 16,38 37,38l1452 0c21,0 37,-17 37,-38 0,-20 -16,-37 -37,-37z"/>
   </g>
  </g>
  <g id="_295995760">
   <g>
    <path class="fil0" d="M1525 1113l-500 0c-21,0 -37,17 -37,37 0,21 16,38 37,38l500 0c21,0 37,-17 37,-38 0,-20 -16,-37 -37,-37z"/>
   </g>
  </g>
  <g id="_295996648">
   <g>
    <path class="fil0" d="M2001 644l-1083 0c-21,0 -37,17 -37,38 0,20 16,37 37,37l1083 0c21,0 37,-17 37,-37 0,-21 -16,-38 -37,-38z"/>
   </g>
  </g>
  <g id="_295996336">
   <g>
    <path class="fil0" d="M744 644l-195 0c-21,0 -37,17 -37,38 0,20 16,37 37,37l195 0c21,0 37,-17 37,-37 0,-21 -16,-38 -37,-38z"/>
   </g>
  </g>
  <g id="_295996456">
   <g>
    <path class="fil0" d="M2357 379c-9,-9 -20,-14 -32,-14 0,0 0,0 0,0 -76,0 -138,-59 -142,-135 -1,-24 -21,-43 -46,-43l-1733 0c-25,0 -45,19 -46,43 -3,73 -63,132 -135,135 -25,1 -44,21 -44,46l0 967c0,24 19,44 44,46 72,3 132,62 135,134 1,25 21,44 46,44l1103 0c21,0 38,-17 38,-37 0,-21 -17,-38 -38,-38l-1077 0c-16,-90 -86,-160 -176,-175l0 -915c90,-16 160,-86 176,-176l1682 0c16,93 90,165 184,177l0 635c0,21 17,37 37,37 21,0 38,-16 38,-37l0 -662c0,-12 -5,-24 -14,-32z"/>
   </g>
  </g>
  <g id="_295996000">
   <g>
    <path class="fil0" d="M2446 0l-2342 0c-57,0 -104,47 -104,104l0 1581c0,57 47,104 104,104l1569 0 -56 116c-7,15 -5,33 5,46 10,13 26,20 42,17l104 -17 58 95c8,13 22,21 37,21 1,0 2,0 3,0 16,0 30,-10 38,-25l100 -210 100 210c7,15 22,25 38,25 1,0 1,0 2,0 16,0 30,-8 38,-21l58 -95 103 17c17,3 33,-4 43,-17 10,-13 11,-31 4,-46l-55 -116 111 0c57,0 104,-47 104,-104l0 -1581c0,-57 -47,-104 -104,-104zm-586 1959l-39 -64c-9,-15 -27,-23 -45,-21l-66 11 70 -147c27,29 67,44 107,40 14,-1 28,2 40,11 3,2 7,5 11,7l-78 163zm153 -221c0,0 -1,0 -1,0 -5,1 -11,1 -17,0 0,0 0,0 0,0 -9,-2 -18,-5 -25,-10 -23,-17 -50,-25 -77,-25 -4,0 -9,0 -13,1 -25,2 -48,-12 -58,-34 -5,-10 -11,-20 -18,-28 0,0 0,-1 -1,-1 0,-1 0,-1 -1,-2 0,0 -1,-1 -1,-1 -12,-14 -28,-26 -45,-34 -23,-10 -36,-34 -34,-59 3,-31 -5,-63 -24,-89 -14,-20 -14,-48 0,-68 19,-26 27,-58 24,-90 -2,-24 11,-48 34,-58 29,-13 52,-37 66,-66 10,-22 34,-36 58,-34 32,3 64,-5 90,-24 20,-14 47,-14 68,0 26,19 57,27 89,24 25,-2 49,12 59,34 13,29 37,53 66,66 22,10 36,34 33,58 -3,32 6,64 24,90 15,20 15,48 0,68 -18,26 -27,58 -24,89 3,25 -11,49 -33,59 -18,8 -33,20 -45,34 -1,0 -1,1 -2,1 0,1 0,1 -1,2 0,0 -1,1 -1,1 -7,8 -13,18 -17,28 -10,22 -34,36 -59,34 -31,-3 -63,5 -89,24 -8,5 -17,8 -25,10zm218 136c-17,-2 -35,6 -45,21l-39 64 -78 -163c4,-2 8,-5 12,-7 11,-9 25,-12 39,-11 41,4 80,-11 108,-40l70 147 -67 -11zm244 -189c0,16 -13,29 -29,29l-147 0 -19 -40c1,-1 2,-2 3,-2 51,-24 82,-77 77,-134 -2,-14 2,-28 10,-39 33,-46 33,-108 0,-154 -8,-12 -12,-26 -10,-40 5,-56 -26,-110 -77,-133 -13,-6 -23,-16 -29,-29 -24,-51 -77,-82 -134,-77 -14,1 -28,-3 -39,-11 -46,-32 -108,-32 -154,0 -12,8 -26,12 -40,11 -56,-5 -110,26 -133,77 -6,13 -16,23 -29,29 -52,23 -83,77 -77,133 1,14 -3,28 -11,40 -33,46 -33,108 0,154 8,11 12,25 11,39 -6,57 25,110 77,134 1,0 2,1 3,2l-19 40 -1605 0c-16,0 -29,-13 -29,-29l0 -1581c0,-16 13,-29 29,-29l2342 0c16,0 29,13 29,29l0 1581z"/>
   </g>
  </g>
  <g id="_295996912">
   <g>
    <path class="fil0" d="M2001 1190c-128,0 -232,104 -232,232 0,128 104,232 232,232 128,0 232,-104 232,-232 0,-128 -104,-232 -232,-232zm0 389c-87,0 -157,-70 -157,-157 0,-87 70,-158 157,-158 87,0 158,71 158,158 0,87 -71,157 -158,157z"/>
   </g>
  </g>
  <g id="_295997152">
  </g>
  <g id="_295997392">
  </g>
  <g id="_295997176">
  </g>
  <g id="_295998064">
  </g>
  <g id="_295997776">
  </g>
  <g id="_295997944">
  </g>
  <g id="_295998016">
  </g>
  <g id="_295998112">
  </g>
  <g id="_295997560">
  </g>
  <g id="_295998856">
  </g>
  <g id="_295998616">
  </g>
  <g id="_295998640">
  </g>
  <g id="_295998928">
  </g>
  <g id="_295998208">
  </g>
  <g id="_295999504">
  </g>
 </g>
</svg>
