<?xml version="1.0" encoding="UTF-8"?>
<!DOCTYPE svg PUBLIC "-//W3C//DTD SVG 1.1//EN" "http://www.w3.org/Graphics/SVG/1.1/DTD/svg11.dtd">
<!-- Creator: CorelDRAW X7 -->
<svg xmlns="http://www.w3.org/2000/svg" xml:space="preserve" width="2000px" height="1933px" version="1.1" style="shape-rendering:geometricPrecision; text-rendering:geometricPrecision; image-rendering:optimizeQuality; fill-rule:evenodd; clip-rule:evenodd"
viewBox="0 0 2000 1933"
 xmlns:xlink="http://www.w3.org/1999/xlink">
 <defs>
  <style type="text/css">
   <![CDATA[
    .fil0 {fill:#D1D1D1}
   ]]>
  </style>
 </defs>
 <g id="Capa_x0020_1">
  <metadata id="CorelCorpID_0Corel-Layer"/>
  <path class="fil0" d="M1833 0l-1400 0c-92,0 -166,75 -166,167l0 1300 -234 0c-18,0 -33,15 -33,33l0 67c0,92 75,166 167,166l1034 0 0 167c0,13 7,24 18,30 12,5 25,4 35,-3l113 -85 114 85c6,4 13,6 20,6 5,0 10,-1 15,-3 11,-6 18,-17 18,-30l0 -167 33 0c92,0 166,-74 166,-166l0 -1300 234 0c18,0 33,-15 33,-34l0 -66c0,-92 -75,-167 -167,-167zm-632 1667l-1034 0c-56,0 -100,-45 -100,-100l0 -34 1134 0 0 134zm266 166l-80 -60c-11,-9 -28,-9 -40,0l-80 60 0 -372c7,1 13,0 20,0 19,24 49,39 80,39 31,0 61,-15 80,-39 7,0 14,1 20,0l0 372zm43 -534c-9,3 -16,10 -19,19 -4,9 -4,19 0,27 7,13 4,29 -6,39 -11,11 -26,14 -40,7 -8,-4 -18,-4 -27,0 -8,3 -15,10 -18,19 -5,14 -18,23 -33,23 -15,0 -28,-9 -32,-23 -4,-9 -10,-16 -19,-19 -9,-4 -19,-4 -27,0 -14,7 -29,4 -40,-7 -10,-10 -13,-26 -6,-39 4,-8 4,-18 0,-27 -3,-9 -10,-15 -19,-19 -14,-5 -23,-18 -23,-32 0,-15 9,-28 23,-33 9,-3 16,-10 19,-19 4,-8 4,-18 0,-27 -7,-13 -4,-29 6,-39 11,-10 26,-13 40,-7 8,4 18,4 27,1 9,-4 15,-11 19,-20 4,-14 17,-23 32,-23 15,0 28,9 33,23 3,9 10,16 18,20 9,3 19,3 27,-1 14,-6 29,-3 40,7 10,10 13,26 6,39 -4,9 -4,19 0,27 3,9 10,16 19,19 14,5 23,18 23,33 0,14 -9,27 -23,32zm187 -1228c-1,3 -3,5 -5,8 -3,6 -7,12 -9,18 -2,3 -3,6 -5,9 -2,7 -4,14 -6,20 -1,4 -2,7 -2,10 -2,10 -3,20 -3,31l0 1400c0,55 -45,100 -100,100 -11,-1 -22,-3 -33,-6l0 -232c21,-22 31,-52 27,-82 25,-19 39,-49 39,-80 0,-32 -14,-61 -39,-81 4,-31 -7,-62 -29,-84 -22,-22 -53,-33 -85,-29 -19,-25 -48,-40 -80,-40 -31,0 -61,15 -80,40 -31,-4 -62,7 -85,29 -22,22 -32,53 -28,84 -25,20 -40,49 -40,81 0,31 15,61 40,80 -4,30 6,61 27,83l0 37 -868 0 0 -1300c0,-56 45,-100 100,-100l1267 0c-1,1 -2,2 -3,4l0 0zm236 129l-200 0 0 -33c0,-56 45,-100 100,-100 56,0 100,44 100,100l0 33zm0 0z"/>
  <path class="fil0" d="M1100 267l133 0 0 66 -133 0 0 -66zm0 0z"/>
  <path class="fil0" d="M767 267l266 0 0 66 -266 0 0 -66zm0 0z"/>
  <path class="fil0" d="M667 433l666 0 0 67 -666 0 0 -67zm0 0z"/>
  <path class="fil0" d="M500 633l167 0 0 67 -167 0 0 -67zm0 0z"/>
  <path class="fil0" d="M500 800l367 0 0 67 -367 0 0 -67zm0 0z"/>
  <path class="fil0" d="M733 633l767 0 0 67 -767 0 0 -67zm0 0z"/>
  <path class="fil0" d="M933 800l567 0 0 67 -567 0 0 -67zm0 0z"/>
  <path class="fil0" d="M500 967l667 0 0 66 -667 0 0 -66zm0 0z"/>
  <path class="fil0" d="M500 1133l567 0 0 67 -567 0 0 -67zm0 0z"/>
 </g>
</svg>
