<?xml version="1.0" encoding="UTF-8"?>
<!DOCTYPE svg PUBLIC "-//W3C//DTD SVG 1.1//EN" "http://www.w3.org/Graphics/SVG/1.1/DTD/svg11.dtd">
<!-- Creator: CorelDRAW 2017 -->
<svg xmlns="http://www.w3.org/2000/svg" xml:space="preserve" width="455px" height="455px" version="1.1" style="shape-rendering:geometricPrecision; text-rendering:geometricPrecision; image-rendering:optimizeQuality; fill-rule:evenodd; clip-rule:evenodd"
viewBox="0 0 2018 2018"
 xmlns:xlink="http://www.w3.org/1999/xlink">
 <defs>
  <style type="text/css">
   <![CDATA[
    .fil0 {fill:white}
   ]]>
  </style>
 </defs>
 <g id="Layer_x0020_1">
  <metadata id="CorelCorpID_0Corel-Layer"/>
  <g id="_2446293058224">
   <path class="fil0" d="M448 1188l0 -359c0,-65 8,-117 26,-162 9,-23 20,-43 32,-62l44 -55c10,-10 14,-11 25,-20 12,-10 14,-12 28,-22 68,-45 137,-60 227,-60l359 0c61,0 113,7 159,25 24,10 42,18 63,32 105,69 160,177 160,307l0 395c0,212 -151,363 -363,363l-395 0c-84,0 -153,-21 -214,-64 -107,-73 -149,-186 -149,-318zm-448 -211c0,199 22,294 93,459 100,233 331,436 575,524 29,10 60,20 93,28 109,28 168,30 280,30 176,0 344,-60 475,-135 124,-71 237,-176 319,-291 71,-100 124,-214 154,-334 28,-109 30,-168 30,-280 0,-201 -76,-396 -182,-549 -64,-92 -153,-181 -244,-245 -23,-17 -47,-32 -74,-47 -129,-76 -305,-136 -478,-136 -200,0 -293,22 -459,93 -195,83 -405,294 -489,489 -47,110 -93,242 -93,396z"/>
   <path class="fil0" d="M722 1018c0,-3 6,-58 7,-65 31,-151 181,-256 336,-224 171,35 279,220 207,390 -15,37 -32,60 -58,86 -61,60 -107,80 -198,90 -33,3 -86,-10 -118,-23 -86,-35 -164,-131 -172,-223l-5 -31zm588 -265c-57,0 -67,-94 4,-94 58,0 55,94 -4,94zm-736 22l0 466c0,63 45,126 83,155 50,39 100,51 187,51l332 0c186,0 274,-88 274,-274l0 -336c0,-82 -14,-134 -51,-182 -29,-37 -92,-83 -155,-83l-466 0c-98,0 -202,104 -202,202z"/>
   <path class="fil0" d="M834 1009c0,101 76,175 184,175 87,0 166,-76 166,-184 0,-166 -250,-242 -335,-61 -9,20 -15,43 -15,70z"/>
  </g>
 </g>
</svg>
