<?xml version="1.0" encoding="UTF-8"?>
<!DOCTYPE svg PUBLIC "-//W3C//DTD SVG 1.1//EN" "http://www.w3.org/Graphics/SVG/1.1/DTD/svg11.dtd">
<!-- Creator: CorelDRAW 2017 -->
<svg xmlns="http://www.w3.org/2000/svg" xml:space="preserve" width="514px" height="514px" version="1.1" style="shape-rendering:geometricPrecision; text-rendering:geometricPrecision; image-rendering:optimizeQuality; fill-rule:evenodd; clip-rule:evenodd"
viewBox="0 0 1264 1264"
 xmlns:xlink="http://www.w3.org/1999/xlink">
 <defs>
  <style type="text/css">
   <![CDATA[
    .fil0 {fill:white}
   ]]>
  </style>
 </defs>
 <g id="Layer_x0020_1">
  <metadata id="CorelCorpID_0Corel-Layer"/>
  <path class="fil0" d="M0 632c0,348 285,631 632,631 347,0 631,-285 631,-631 0,-348 -284,-632 -631,-632 -349,0 -632,284 -632,632zm532 -149l-74 2 1 148 74 0 0 372 148 1 1 -371 111 -2 13 -149 -118 0c-5,-115 6,-96 115,-96l1 -128c-76,0 -164,-10 -218,31 -57,43 -52,104 -55,191l0 0z"/>
 </g>
</svg>
