<?xml version="1.0" encoding="UTF-8"?>
<!DOCTYPE svg PUBLIC "-//W3C//DTD SVG 1.1//EN" "http://www.w3.org/Graphics/SVG/1.1/DTD/svg11.dtd">
<!-- Creator: CorelDRAW X7 -->
<svg xmlns="http://www.w3.org/2000/svg" xml:space="preserve" width="2380px" height="2550px" version="1.1" style="shape-rendering:geometricPrecision; text-rendering:geometricPrecision; image-rendering:optimizeQuality; fill-rule:evenodd; clip-rule:evenodd"
viewBox="0 0 2752 2949"
 xmlns:xlink="http://www.w3.org/1999/xlink">
 <defs>
  <style type="text/css">
   <![CDATA[
    .fil0 {fill:#E6DFDF}
   ]]>
  </style>
 </defs>
 <g id="Capa_x0020_1">
  <metadata id="CorelCorpID_0Corel-Layer"/>
  <g>
   <path class="fil0" d="M2198 1720l150 -246c193,-394 400,-680 404,-770 1,-18 -7,-29 -25,-29l-154 -3 -283 -10c2,-56 3,-160 -11,-215 -49,-194 -191,-348 -381,-411l-17 -6c-59,-20 -121,-30 -194,-30 -192,0 -371,94 -480,252l-1050 1507c-16,20 -31,42 -45,64l-8 11 1 0c-66,111 -105,239 -105,377 0,407 331,738 737,738l651 0c40,0 74,-57 87,-78l723 -1151zm-676 1106l151 -246 -151 246zm-214 -2504c86,-125 228,-199 389,-199 50,0 98,8 145,23l17 6c150,50 262,171 301,325 30,120 10,249 -55,353l-759 1208c-26,-315 -288,-564 -609,-564 -94,0 -185,19 -268,52l839 -1204zm70 2504l-641 0c-339,0 -614,-276 -614,-615 0,-121 36,-233 97,-329l22 -30c112,-154 291,-255 495,-255 271,0 492,221 492,492 0,271 -221,491 -492,491 -203,0 -368,-165 -368,-369 0,-203 165,-368 368,-368 17,0 33,2 48,5l-82 120c-119,17 -212,120 -212,243 0,136 111,246 246,246 203,0 369,-165 369,-368 0,-204 -166,-369 -369,-369 -271,0 -491,220 -491,491 0,271 220,492 491,492 239,0 443,-138 545,-337l2 1 925 -1472c30,-49 50,-103 65,-158l381 0 -1277 2089zm-590 -764l109 -160c53,45 86,112 86,187 0,135 -110,245 -246,245 -68,0 -123,-55 -123,-123 0,-67 55,-122 123,-122 20,0 39,-10 51,-27z"/>
  </g>
 </g>
</svg>
