<?xml version="1.0" encoding="UTF-8"?>
<!DOCTYPE svg PUBLIC "-//W3C//DTD SVG 1.1//EN" "http://www.w3.org/Graphics/SVG/1.1/DTD/svg11.dtd">
<!-- Creator: CorelDRAW 2017 -->
<svg xmlns="http://www.w3.org/2000/svg" xml:space="preserve" width="612px" height="613px" version="1.1" style="shape-rendering:geometricPrecision; text-rendering:geometricPrecision; image-rendering:optimizeQuality; fill-rule:evenodd; clip-rule:evenodd"
viewBox="0 0 217 217"
 xmlns:xlink="http://www.w3.org/1999/xlink">
 <defs>
  <style type="text/css">
   <![CDATA[
    .str0 {stroke:white;stroke-width:0}
    .fil0 {fill:white}
   ]]>
  </style>
 </defs>
 <g id="Layer_x0020_1">
  <metadata id="CorelCorpID_0Corel-Layer"/>
  <path class="fil0 str0" d="M72 91c0,4 1,8 3,11 4,6 6,9 2,17 -5,0 -10,-4 -13,-8 -8,-10 -6,-30 0,-41 5,-9 9,-12 17,-18 15,-10 36,-11 52,-5 6,2 9,5 14,8 3,3 7,8 9,13 3,6 3,11 4,19 1,4 -1,15 -3,19 -2,6 -4,11 -7,15 -8,11 -17,16 -31,16 -6,0 -10,-3 -14,-6 -1,-1 -3,-2 -4,-2 0,5 -4,21 -6,25 -2,4 -3,7 -5,10 -2,3 -5,6 -8,8 -3,-14 1,-36 4,-48 1,-5 3,-10 4,-15 2,-9 1,-5 -1,-11 -3,-11 3,-28 13,-28 6,0 11,4 11,10 0,5 -2,11 -3,15 -4,12 -9,28 9,28 15,0 23,-22 23,-36 0,-11 -1,-18 -8,-26 -11,-11 -30,-10 -43,-2 -9,6 -17,17 -17,30zm-72 15c0,28 7,48 23,69 1,1 2,3 3,4l6 7c4,3 11,9 15,12 1,1 2,2 4,3 4,3 9,5 13,7 12,6 30,9 44,10 5,0 19,-2 24,-3 6,-1 15,-4 20,-7 13,-6 23,-13 32,-22 31,-31 40,-72 26,-114 -1,-4 -3,-6 -4,-10 -7,-16 -23,-35 -37,-44 -12,-8 -23,-13 -37,-16 -4,-1 -8,-2 -12,-2l-13 -1 -12 1c-17,1 -35,9 -49,18 -3,2 -9,7 -11,9 -3,3 -3,2 -7,7 -1,1 -2,2 -3,3 -8,10 -10,12 -16,25 -5,11 -10,28 -10,44z"/>
 </g>
</svg>
