<?xml version="1.0" encoding="UTF-8"?>
<!DOCTYPE svg PUBLIC "-//W3C//DTD SVG 1.1//EN" "http://www.w3.org/Graphics/SVG/1.1/DTD/svg11.dtd">
<!-- Creator: CorelDRAW X7 -->
<svg xmlns="http://www.w3.org/2000/svg" xml:space="preserve" width="1553px" height="1540px" version="1.1" style="shape-rendering:geometricPrecision; text-rendering:geometricPrecision; image-rendering:optimizeQuality; fill-rule:evenodd; clip-rule:evenodd"
viewBox="0 0 1550 1536"
 xmlns:xlink="http://www.w3.org/1999/xlink">
 <defs>
  <style type="text/css">
   <![CDATA[
    .fil0 {fill:#D1D1D1}
   ]]>
  </style>
 </defs>
 <g id="Capa_x0020_1">
  <metadata id="CorelCorpID_0Corel-Layer"/>
  <path class="fil0" d="M552 474l0 -50c-110,0 -200,90 -200,200l50 0c0,-83 67,-150 150,-150z"/>
  <path class="fil0" d="M1475 0l-599 0c-41,0 -75,34 -75,75l0 62c-40,-14 -84,-11 -121,10 -27,-44 -75,-72 -129,-72 -53,0 -100,28 -127,72 -45,-25 -100,-26 -145,1l-2 1c-46,26 -73,74 -74,125 -51,1 -99,29 -126,74l-1 2c-26,46 -26,101 -1,146 -44,26 -72,74 -72,126l0 3c0,52 28,100 72,126 -25,45 -25,100 1,146l1 2c27,45 75,73 126,74 0,15 3,30 8,44l-211 344 235 -59 58 234 221 -369c12,4 26,5 39,5 13,0 26,-1 38,-5l220 369 58 -234 235 59 -211 -344c5,-14 8,-29 8,-44 51,-1 99,-28 126,-74l1 -2c26,-46 26,-101 1,-146 37,-22 62,-59 69,-102l377 0c41,0 75,-34 75,-75l0 -499c0,-41 -34,-75 -75,-75zm-274 100l0 50 -50 0 0 -50 -50 0 0 50 -50 0 0 -100 249 0 0 100 -50 0 0 -50 -49 0zm-400 358c-53,-80 -145,-134 -249,-134 -165,0 -299,135 -299,300 0,165 134,299 299,299 158,0 288,-124 298,-279 8,3 17,5 26,5l24 0c-13,180 -164,324 -348,324 -193,0 -349,-157 -349,-349 0,-193 156,-350 349,-350 94,0 184,39 249,106l0 78zm0 166c0,137 -111,249 -249,249 -138,0 -249,-112 -249,-249 0,-138 111,-250 249,-250 138,0 249,112 249,250zm-489 783l-41 -165 -165 41 133 -216c10,12 23,23 38,31l2 1c45,27 100,26 145,2 11,18 26,33 44,45l-156 261zm686 -124l-165 -41 -41 165 -156 -261c18,-11 33,-27 44,-45 45,24 100,25 145,-2l2 -1c15,-8 28,-19 38,-31l133 216zm-14 -565l-36 12 25 28c28,32 33,78 12,114l-2 2c-21,36 -63,55 -104,47l-37 -8 7 37c9,42 -10,84 -46,105l-3 1c-36,21 -82,16 -114,-12l-28 -24 -12 35c-13,40 -51,67 -95,67 -42,0 -80,-27 -93,-67l-12 -35 -28 24c-32,28 -78,33 -114,12l-3 -1c-36,-21 -55,-63 -46,-105l7 -37 -37 8c-41,8 -83,-11 -104,-47l-2 -2c-21,-36 -16,-82 12,-114l25 -28 -36 -12c-40,-14 -67,-51 -67,-93l0 -3c0,-42 27,-79 67,-93l36 -12 -25 -28c-28,-32 -33,-77 -12,-114l2 -2c21,-36 63,-55 104,-47l37 8 -7 -37c-9,-42 10,-84 46,-105l3 -1c36,-21 82,-16 114,12l28 25 12 -36c13,-40 51,-67 95,-67 42,0 80,27 93,67l12 36 28 -25c32,-28 78,-33 114,-12l1 1 0 121c-70,-57 -158,-89 -249,-89 -220,0 -399,180 -399,400 0,220 179,399 399,399 212,0 385,-166 398,-374l98 0c-8,31 -32,58 -64,69zm516 -144c0,13 -11,25 -25,25l-599 0c-13,0 -25,-12 -25,-25l0 -499c0,-14 12,-25 25,-25l125 0 0 150 349 0 0 -150 125 0c14,0 25,11 25,25l0 499z"/>
  <polygon class="fil0" points="1300,499 1350,499 1350,549 1300,549 "/>
  <polygon class="fil0" points="1400,499 1450,499 1450,549 1400,549 "/>
  <polygon class="fil0" points="1201,499 1250,499 1250,549 1201,549 "/>
  <polygon class="fil0" points="1201,399 1450,399 1450,449 1201,449 "/>
  <polygon class="fil0" points="502,738 445,681 410,716 502,809 744,566 709,531 "/>
 </g>
</svg>
