<?xml version="1.0" encoding="UTF-8"?>
<!DOCTYPE svg PUBLIC "-//W3C//DTD SVG 1.1//EN" "http://www.w3.org/Graphics/SVG/1.1/DTD/svg11.dtd">
<!-- Creator: CorelDRAW 2017 -->
<svg xmlns="http://www.w3.org/2000/svg" xml:space="preserve" width="595px" height="595px" version="1.1" style="shape-rendering:geometricPrecision; text-rendering:geometricPrecision; image-rendering:optimizeQuality; fill-rule:evenodd; clip-rule:evenodd"
viewBox="0 0 265 265"
 xmlns:xlink="http://www.w3.org/1999/xlink">
 <defs>
  <style type="text/css">
   <![CDATA[
    .str0 {stroke:white;stroke-width:0}
    .fil0 {fill:white}
   ]]>
  </style>
 </defs>
 <g id="Layer_x0020_1">
  <metadata id="CorelCorpID_0Corel-Layer"/>
  <path class="fil0 str0" d="M113 208c-14,0 -26,-6 -33,-13 -10,-10 -14,-20 -14,-35 0,-17 12,-33 26,-40 10,-5 16,-4 27,-4 3,0 2,6 2,11 0,4 0,9 0,13 -5,0 -14,-3 -22,5 -15,14 -5,39 15,39 13,0 23,-9 23,-23l0 -104 24 0c0,11 5,21 11,26 2,2 3,3 5,4 6,5 13,7 22,7l0 24c-9,0 -15,-1 -23,-4 -6,-2 -11,-5 -16,-9 0,12 0,25 0,37 0,23 2,40 -19,55 -7,5 -17,9 -28,9zm14 -208l11 0c9,0 18,2 27,4 4,1 8,2 12,4 4,1 8,3 11,5 19,10 36,22 49,39 6,8 11,15 15,25 9,20 12,37 12,61 0,26 -11,53 -24,72 -13,19 -31,33 -52,44 -20,9 -37,12 -61,12 -18,0 -39,-6 -52,-12 -29,-14 -50,-35 -64,-64 -9,-20 -12,-37 -12,-61 0,-16 5,-38 12,-52 11,-23 23,-37 44,-52 20,-15 45,-23 71,-24z"/>
 </g>
</svg>
