<?xml version="1.0" encoding="UTF-8"?>
<!DOCTYPE svg PUBLIC "-//W3C//DTD SVG 1.1//EN" "http://www.w3.org/Graphics/SVG/1.1/DTD/svg11.dtd">
<!-- Creator: CorelDRAW X7 -->
<svg xmlns="http://www.w3.org/2000/svg" xml:space="preserve" width="924px" height="931px" version="1.1" style="shape-rendering:geometricPrecision; text-rendering:geometricPrecision; image-rendering:optimizeQuality; fill-rule:evenodd; clip-rule:evenodd"
viewBox="0 0 920 928"
 xmlns:xlink="http://www.w3.org/1999/xlink">
 <defs>
  <style type="text/css">
   <![CDATA[
    .fil0 {fill: #00bb2d}
   ]]>
  </style>
 </defs>
 <g id="Capa_x0020_1">
  <metadata id="CorelCorpID_0Corel-Layer"/>
  <g id="g14">
   <g id="g12">
    <path id="path10" class="fil0" d="M469 0c-250,0 -452,202 -452,452 0,85 23,165 65,233l-82 243 250 -81c65,36 139,57 219,57 249,0 451,-203 451,-452 0,-250 -202,-452 -451,-452zm0 832c-78,0 -149,-23 -209,-63l-146 47 47 -141c-45,-63 -72,-140 -72,-223 0,-210 170,-380 380,-380 209,0 379,170 379,380 0,209 -170,380 -379,380z"/>
   </g>
  </g>
  <path id="path16" class="fil0" d="M363 265c-8,-18 -13,-18 -25,-19 -4,0 -8,0 -12,0 -15,0 -30,4 -39,13 -11,12 -39,38 -39,93 0,54 40,107 45,114 6,8 78,121 190,168 87,36 113,32 133,28 29,-6 65,-28 74,-53 10,-26 10,-48 7,-53 -3,-5 -10,-7 -21,-13 -12,-6 -66,-32 -76,-36 -10,-4 -20,-3 -28,8 -10,15 -21,30 -29,40 -7,7 -18,8 -27,4 -12,-6 -47,-18 -89,-55 -33,-30 -55,-66 -62,-77 -6,-11 0,-18 5,-24 5,-7 10,-11 16,-18 6,-6 9,-10 12,-17 4,-8 2,-15 -1,-21 -3,-5 -25,-60 -34,-82z"/>
 </g>
</svg>
