<?xml version="1.0" encoding="UTF-8"?>
<!DOCTYPE svg PUBLIC "-//W3C//DTD SVG 1.1//EN" "http://www.w3.org/Graphics/SVG/1.1/DTD/svg11.dtd">
<!-- Creator: CorelDRAW 2017 -->
<svg xmlns="http://www.w3.org/2000/svg" xml:space="preserve" width="480px" height="484px" version="1.1" style="shape-rendering:geometricPrecision; text-rendering:geometricPrecision; image-rendering:optimizeQuality; fill-rule:evenodd; clip-rule:evenodd"
viewBox="0 0 1267 1278"
 xmlns:xlink="http://www.w3.org/1999/xlink">
 <defs>
  <style type="text/css">
   <![CDATA[
    .fil0 {fill:white}
   ]]>
  </style>
 </defs>
 <g id="Layer_x0020_1">
  <metadata id="CorelCorpID_0Corel-Layer"/>
  <g id="_2446284398464">
   <path id="path10" class="fil0" d="M646 0c-344,0 -622,278 -622,622 0,117 31,227 90,321l-113 335 344 -112c90,49 192,78 301,78 343,0 621,-279 621,-622 0,-344 -278,-622 -621,-622l0 0zm0 1146c-107,0 -205,-32 -287,-87l-201 65 65 -194c-62,-87 -99,-193 -99,-307 0,-289 234,-524 523,-524 288,0 522,234 522,524 0,287 -234,523 -522,523z"/>
   <path class="fil0" d="M586 1172c-81,-8 -160,-36 -234,-81l-15 -9 -101 33c-55,19 -102,33 -103,33 -1,0 14,-45 31,-102l33 -102 -18 -28c-136,-218 -110,-501 65,-690 45,-51 92,-85 153,-117 90,-45 161,-61 259,-58 84,3 141,16 213,52 134,63 241,190 286,335 18,54 23,90 26,153 3,102 -13,178 -57,270 -89,186 -264,303 -469,312 -21,1 -52,1 -70,-1l0 0 0 0zm262 -245c32,-7 70,-28 90,-48 15,-14 21,-25 26,-44 7,-28 9,-62 4,-70 -6,-9 -138,-73 -153,-73 -18,-1 -21,3 -48,42 -25,34 -35,41 -51,38 -15,-4 -60,-28 -90,-47 -45,-30 -139,-139 -139,-163 0,-3 7,-15 16,-26 37,-47 40,-51 37,-64 -3,-19 -56,-150 -65,-158 -11,-11 -41,-14 -69,-7 -22,6 -43,23 -61,54 -29,45 -34,114 -14,173 33,98 150,242 252,309 57,37 134,67 212,84 15,4 30,2 51,-1l0 0 0 0z"/>
  </g>
 </g>
</svg>
