<?xml version="1.0" encoding="UTF-8"?>
<!DOCTYPE svg PUBLIC "-//W3C//DTD SVG 1.1//EN" "http://www.w3.org/Graphics/SVG/1.1/DTD/svg11.dtd">
<!-- Creator: CorelDRAW 2017 -->
<svg xmlns="http://www.w3.org/2000/svg" xml:space="preserve" width="592px" height="592px" version="1.1" style="shape-rendering:geometricPrecision; text-rendering:geometricPrecision; image-rendering:optimizeQuality; fill-rule:evenodd; clip-rule:evenodd"
viewBox="0 0 814 814"
 xmlns:xlink="http://www.w3.org/1999/xlink">
 <defs>
  <style type="text/css">
   <![CDATA[
    .fil0 {fill:white}
   ]]>
  </style>
 </defs>
 <g id="Layer_x0020_1">
  <metadata id="CorelCorpID_0Corel-Layer"/>
  <g id="_2446282972688">
   <path class="fil0" d="M203 410c0,-31 0,-94 16,-119 6,-9 14,-15 24,-19 29,-11 298,-11 326,0 22,9 32,27 35,50 7,46 7,119 0,165 -8,58 -45,59 -91,59 -10,0 -12,2 -21,2l-64 2c-20,1 -45,-2 -64,-2 -14,0 -29,0 -43,0 -9,0 -11,-1 -19,-2 -26,-1 -67,3 -85,-23 -17,-24 -17,-83 -17,-114zm-203 -16c0,61 4,94 23,150 9,27 18,43 31,67 3,6 6,9 9,15 13,22 38,51 55,69 16,16 34,31 53,44 24,17 35,23 62,37 38,19 103,38 159,38l2 0c45,0 66,0 112,-12 14,-3 25,-7 38,-11 52,-18 84,-41 125,-72 82,-63 145,-190 145,-297 0,-73 -9,-126 -38,-187 -44,-92 -106,-151 -196,-197 -43,-22 -110,-38 -159,-38 -61,0 -95,3 -152,23 -11,4 -25,9 -35,14l-47 26c-67,40 -115,102 -150,171 -22,43 -38,111 -38,160z"/>
   <path class="fil0" d="M364 459c5,0 10,-4 14,-6 12,-6 91,-48 97,-49 -3,-4 -74,-40 -83,-45l-29 -14 0 114z"/>
  </g>
 </g>
</svg>
